<mxfile host="65bd71144e" modified="2020-10-09T14:26:02.417Z" agent="5.0 (Macintosh; Intel Mac OS X 10_15_7) AppleWebKit/537.36 (KHTML, like Gecko) Code/1.50.0 Chrome/83.0.4103.122 Electron/9.2.1 Safari/537.36" etag="nQDo2Ucjsgh66TlHjrJx" version="13.6.5">
    <diagram id="wbhz4hOUMxktyxJNCbcX" name="Page-1">
        <mxGraphModel dx="1507" dy="1075" grid="1" gridSize="10" guides="1" tooltips="1" connect="1" arrows="1" fold="1" page="1" pageScale="1" pageWidth="850" pageHeight="1100" math="0" shadow="0">
            <root>
                <mxCell id="0"/>
                <mxCell id="1" parent="0"/>
                <mxCell id="TAA7xM5klkKmd9vANnYu-1" value="" style="whiteSpace=wrap;html=1;aspect=fixed;" parent="1" vertex="1">
                    <mxGeometry x="40" y="40" width="760" height="760" as="geometry"/>
                </mxCell>
                <mxCell id="TAA7xM5klkKmd9vANnYu-2" value="" style="rounded=1;whiteSpace=wrap;html=1;" parent="1" vertex="1">
                    <mxGeometry x="40" y="130" width="760" height="110" as="geometry"/>
                </mxCell>
            </root>
        </mxGraphModel>
    </diagram>
</mxfile>